<svg xmlns="http://www.w3.org/2000/svg" xmlns:se="http://svg-edit.googlecode.com" xmlns:xlink="http://www.w3.org/1999/xlink" xmlns:dc="http://purl.org/dc/elements/1.1/" xmlns:cc="http://creativecommons.org/ns#" xmlns:rdf="http://www.w3.org/1999/02/22-rdf-syntax-ns#" xmlns:inkscape="http://www.inkscape.org/namespaces/inkscape" width="777" height="480" style="">                                    <title>my vector image</title>                                    <!-- Created with Vector Paint - http://www.vectorpaint.yaks.com/ https://chrome.google.com/webstore/detail/hnbpdiengicdefcjecjbnjnoifekhgdo -->                                    <rect id="backgroundrect" width="100%" height="100%" x="0" y="0" fill="#FFFFFF" stroke="none"/>                                <g class="currentLayer" style=""><title>Layer 1</title><path fill="#e841e8" fill-opacity="1" stroke="#222222" stroke-opacity="1" stroke-width="2" stroke-dasharray="none" stroke-linejoin="round" stroke-linecap="butt" stroke-dashoffset="" fill-rule="nonzero" opacity="1" marker-start="" marker-mid="" marker-end="" d="M137.77143876721817,121.81818113557839L344.2649503757261,141.29870109864518" id="svg_1"/><path fill="#e841e8" fill-opacity="1" stroke="#222222" stroke-opacity="1" stroke-width="2" stroke-dasharray="none" stroke-linejoin="round" stroke-linecap="butt" stroke-dashoffset="" fill-rule="nonzero" opacity="1" marker-start="" marker-mid="" marker-end="" d="M348.16105436833953,130.90909045167624L346.8623530374684,255.5844182153037" id="svg_3"/><path fill="#e841e8" fill-opacity="1" stroke="#222222" stroke-opacity="1" stroke-width="2" stroke-dasharray="none" stroke-linejoin="round" stroke-linecap="butt" stroke-dashoffset="" fill-rule="nonzero" opacity="1" marker-start="" marker-mid="" marker-end="" d="M346.8623530374684,255.5844182153037L109.20000948805354,255.5844182153037" id="svg_5"/><path fill="#e841e8" fill-opacity="1" stroke="#222222" stroke-opacity="1" stroke-width="2" stroke-dasharray="none" stroke-linejoin="round" stroke-linecap="butt" stroke-dashoffset="" fill-rule="nonzero" opacity="1" marker-start="" marker-mid="" marker-end="" d="M131.27793211286257,106.23376516512499L132.57663344373367,295.84415947230843" id="svg_7"/><path fill="#e841e8" fill-opacity="1" stroke="#222222" stroke-opacity="1" stroke-width="2" stroke-dasharray="none" stroke-linejoin="round" stroke-linecap="butt" stroke-dashoffset="" fill-rule="nonzero" opacity="1" marker-start="" marker-mid="" marker-end="" d="M185.82338800944962,146.49350642212968L226.0831292664543,151.6883117456142" id="svg_9"/><rect fill="#ebeb1a" stroke="#222222" stroke-width="2" stroke-linejoin="round" stroke-dashoffset="" fill-rule="nonzero" id="svg_11" x="513" y="225.66234308481216" width="126" height="119.33765691518784" style="color: rgb(0, 0, 0);" class="" fill-opacity="1"/><rect fill="#e841e8" stroke="#222222" stroke-width="2" stroke-linejoin="round" stroke-dashoffset="" fill-rule="nonzero" id="svg_13" x="570" y="311" width="2" height="1" style="color: rgb(0, 0, 0);"/><polyline fill="none" stroke="#222222" stroke-width="2" stroke-linejoin="round" stroke-dashoffset="" fill-rule="nonzero" marker-start="" marker-mid="" marker-end="" id="svg_17" points="591.0182032412389,281.5584448327261 591.0182032412389,281.5584448327261 594.9143072338522,284.1558474944684 594.9143072338522,285.45454882533954 594.9143072338522,286.7532501562106 594.9143072338522,290.64935414882393 594.9143072338522,291.9480554796951 596.2130085647233,295.84415947230843 596.2130085647233,297.1428608031796 596.2130085647233,299.7402634649218 596.2130085647233,302.3376661266641 598.8104112264656,308.83117278101963 600.1091125573367,312.727276773633 600.1091125573367,314.02597810450413 597.5117098955944,316.6233807662463 597.5117098955944,317.9220820971175 594.9143072338522,320.5194847588597 587.1220992486255,327.01299141321533 579.3298912633987,333.50649806757093 574.1350859399143,333.50649806757093 570.238981947301,337.4026020601842 568.9402806164298,337.4026020601842 567.6415792855587,337.4026020601842 566.3428779546875,337.4026020601842 563.7454752929453,334.805199398442 562.4467739620742,333.50649806757093 561.1480726312031,333.50649806757093 559.849371300332,333.50649806757093 " style="color: rgb(0, 0, 0);"/><polyline fill="none" stroke="#222222" stroke-width="2" stroke-linejoin="round" stroke-dashoffset="" fill-rule="nonzero" marker-start="" marker-mid="" marker-end="" id="svg_18" points="627.3818405056302,276.3636395092417 627.3818405056302,276.3636395092417 626.0831391747591,276.3636395092417 623.4857365130168,275.06493817837054 622.1870351821457,273.7662368474994 618.2909311895323,273.7662368474994 618.2909311895323,275.06493817837054 616.9922298586613,275.06493817837054 614.394827196919,276.3636395092417 613.0961258660479,280.25974350185504 611.7974245351768,280.25974350185504 611.7974245351768,281.5584448327261 611.7974245351768,282.85714616359724 611.7974245351768,285.45454882533954 611.7974245351768,288.05195148708174 611.7974245351768,289.3506528179529 613.0961258660479,294.5454581414373 614.394827196919,299.7402634649218 616.9922298586613,304.9350687884063 616.9922298586613,307.5324714501485 616.9922298586613,308.83117278101963 619.5896325204035,310.1298741118908 619.5896325204035,311.42857544276194 622.1870351821457,312.727276773633 622.1870351821457,312.727276773633 624.784437843888,316.6233807662463 627.3818405056302,316.6233807662463 627.3818405056302,317.9220820971175 628.6805418365013,317.9220820971175 629.9792431673725,320.5194847588597 629.9792431673725,323.116887420602 628.6805418365013,323.116887420602 627.3818405056302,323.116887420602 627.3818405056302,325.7142900823442 624.784437843888,327.01299141321533 623.4857365130168,327.01299141321533 622.1870351821457,327.01299141321533 620.8883338512746,327.01299141321533 618.2909311895323,327.01299141321533 616.9922298586613,327.01299141321533 614.394827196919,327.01299141321533 613.0961258660479,327.01299141321533 611.7974245351768,327.01299141321533 611.7974245351768,328.3116927440865 610.4987232043056,328.3116927440865 607.9013205425634,328.3116927440865 606.6026192116923,328.3116927440865 " style="color: rgb(0, 0, 0);"/><rect fill="#1a1aeb" stroke="#222222" stroke-width="2" stroke-linejoin="round" stroke-dashoffset="" fill-rule="nonzero" id="svg_19" x="283" y="290" width="123" height="116" style="color: rgb(0, 0, 0);" class="" fill-opacity="1"/><polyline fill="none" stroke="#222222" stroke-width="2" stroke-linejoin="round" stroke-dashoffset="" fill-rule="nonzero" marker-start="" marker-mid="" marker-end="" id="svg_22" points="346.8623530374684,332.20779673669983 345.5636517065973,332.20779673669983 344.2649503757261,330.9090954058287 342.96624904485503,330.9090954058287 341.66754771398394,330.9090954058287 341.66754771398394,333.50649806757093 336.4727423904995,347.79221270715317 336.4727423904995,358.18182335412223 336.4727423904995,375.0649406554468 336.4727423904995,384.1558499715446 336.4727423904995,393.24675928764236 336.4727423904995,399.740265941998 " style="color: rgb(0, 0, 0);"/><polyline fill="none" stroke="#222222" stroke-width="2" stroke-linejoin="round" stroke-dashoffset="" fill-rule="nonzero" marker-start="" marker-mid="" marker-end="" id="svg_23" points="315.69352109656154,332.20779673669983 315.69352109656154,330.9090954058287 316.99222242743264,330.9090954058287 318.2909237583038,330.9090954058287 320.888326420046,330.9090954058287 326.0831317435305,330.9090954058287 327.3818330744016,330.9090954058287 329.97923573614383,330.9090954058287 331.27793706701493,330.9090954058287 333.8753397287572,330.9090954058287 337.77144372137053,330.9090954058287 341.66754771398394,330.9090954058287 342.96624904485503,330.9090954058287 345.5636517065973,330.9090954058287 346.8623530374684,330.9090954058287 346.8623530374684,330.9090954058287 348.16105436833953,330.9090954058287 349.45975569921063,330.9090954058287 350.75845703008173,330.9090954058287 352.0571583609529,332.20779673669983 " style="color: rgb(0, 0, 0);"/><polyline fill="none" stroke="#222222" stroke-width="2" stroke-linejoin="round" stroke-dashoffset="" fill-rule="nonzero" marker-start="" marker-mid="" marker-end="" id="svg_24" points="378.0311849783753,338.7013033910554 376.7324836475041,334.805199398442 374.1350809857619,332.20779673669983 371.5376783240197,328.3116927440865 370.2389769931486,328.3116927440865 367.6415743314063,328.3116927440865 366.3428730005352,328.3116927440865 365.0441716696641,328.3116927440865 362.44676900792183,329.6103940749575 362.44676900792183,330.9090954058287 362.44676900792183,338.7013033910554 359.8493663461796,346.4935113762821 357.2519636844373,352.9870180306377 357.2519636844373,359.48052468499327 357.2519636844373,363.3766286776066 357.2519636844373,364.6753300084777 357.2519636844373,365.9740313393489 357.2519636844373,367.2727326702201 357.2519636844373,368.5714340010911 358.5506650153085,369.8701353319623 359.8493663461796,372.46753799370447 362.44676900792183,375.0649406554468 363.7454703387929,377.66234331718897 367.6415743314063,380.25974597893116 371.5376783240197,385.45455130241567 378.0311849783753,388.05195396415803 383.2259903018597,393.24675928764236 383.2259903018597,394.5454606185135 383.2259903018597,395.84416194938467 381.9272889709886,397.1428632802558 380.6285876401175,397.1428632802558 378.0311849783753,399.740265941998 376.7324836475041,399.740265941998 372.8363796548907,399.740265941998 368.94027566227743,398.4415646111268 367.6415743314063,398.4415646111268 365.0441716696641,395.84416194938467 362.44676900792183,395.84416194938467 359.8493663461796,395.84416194938467 " style="color: rgb(0, 0, 0);"/></g></svg>